<mxfile host="app.diagrams.net" modified="2024-05-22T02:39:22.790Z" agent="Mozilla/5.0 (X11; Linux x86_64) AppleWebKit/537.36 (KHTML, like Gecko) Chrome/122.0.0.0 Safari/537.36" version="24.4.4" etag="10Ntq1EIG9TrH_-v7_1u" type="github">
  <diagram name="Page-1" id="PEgLZWBeTzKjPw59ZvDR">
    <mxGraphModel>
      <root>
        <mxCell id="0" />
        <mxCell id="1" parent="0" />
      </root>
    </mxGraphModel>
  </diagram>
</mxfile>
